<svg xmlns="http://www.w3.org/2000/svg" width="64" height="64" id="bread"><g fill="none" fill-rule="evenodd"><path fill="#F8E6C4" d="M31.93 13.255c-3.032-1.468-7.269-2.575-13.145-2.575-5.877 0-10.113 1.107-13.146 2.575-4.497 2.177-5.769 9.231-2.532 13.62 1.038 1.408 1.612 3.235 1.612 5.129v17.572a3.84 3.84 0 0 0 3.84 3.839H29.01a3.84 3.84 0 0 0 3.841-3.839V32.004c0-1.894.574-3.721 1.612-5.128 3.237-4.39 1.965-11.444-2.531-13.62"></path><path fill="#FBAE3A" d="M58.123 13.255c-2.787-1.349-6.607-2.415-11.764-2.575H20.514v.04c4.985.196 8.691 1.216 11.417 2.535 4.496 2.177 5.768 9.231 2.531 13.62-1.038 1.408-1.612 3.235-1.612 5.129v17.572a3.84 3.84 0 0 1-3.84 3.839h26.192a3.84 3.84 0 0 0 3.84-3.839V32.004c0-1.894.575-3.721 1.613-5.128 3.237-4.39 1.965-11.444-2.532-13.62"></path><path fill="#010202" d="M61.053 15.99c-.077.268-.393 8.948-25.513 8.948l-.007.002a8.886 8.886 0 0 1-1.07 1.936 8.01 8.01 0 0 0-1.108 2.136 9.151 9.151 0 0 0-.218.721H47.11s4.613.227 4.613 4.97v18.711h3.479a3.84 3.84 0 0 0 3.84-3.838V32.004c0-1.038.179-2.053.505-2.992a8.01 8.01 0 0 1 1.108-2.136c2.351-3.189 2.313-7.775.398-10.885" opacity=".15"></path><path fill="#2E2E30" d="M59.61 26.106c-1.203 1.631-1.865 3.726-1.865 5.898v17.572a2.546 2.546 0 0 1-2.544 2.542H33.468c.43-.75.68-1.617.68-2.542V32.004c0-1.622.482-3.17 1.358-4.36 1.888-2.559 2.53-6.044 1.72-9.324-.704-2.846-2.428-5.117-4.73-6.232-.082-.04-.171-.073-.255-.112h14.078c4.385.137 8.166.96 11.238 2.446 1.606.777 2.825 2.425 3.342 4.52.629 2.54.146 5.218-1.289 7.164ZM30.44 54.505l-.153.04.153-.04Zm-.62.136c-.058.009-.116.02-.175.027.059-.008.117-.018.175-.027Zm1.86-.685-.102.061.102-.061Zm.508-.353-.055.042.055-.042Zm.93-.956-.034.046.034-.046ZM26.701 10.16c.049.01.096.022.146.034-.05-.012-.097-.024-.146-.034Zm-1.59-.293.243.04-.244-.04Zm-1.634-.221.255.03-.255-.03Zm-1.65-.15.196.014-.197-.014ZM8.56 52.118a2.546 2.546 0 0 1-2.543-2.542V32.004c0-2.172-.662-4.267-1.866-5.898-1.435-1.946-1.917-4.624-1.288-7.165.517-2.094 1.736-3.742 3.341-4.519 3.352-1.623 7.586-2.446 12.58-2.446 4.995 0 9.229.823 12.58 2.446 1.607.777 2.825 2.425 3.343 4.52.628 2.54.146 5.218-1.29 7.164-1.202 1.632-1.864 3.726-1.864 5.898v17.572a2.547 2.547 0 0 1-2.544 2.542H8.56ZM63.418 18.32c-.704-2.846-2.427-5.117-4.729-6.232-3.403-1.646-7.537-2.556-12.33-2.705H20.515c-.095 0-.187.012-.277.031-.48-.015-.96-.031-1.452-.031-5.391 0-10.004.911-13.713 2.705-2.301 1.115-4.024 3.386-4.727 6.23-.812 3.281-.17 6.767 1.718 9.327.876 1.188 1.359 2.736 1.359 4.359v17.572A5.142 5.142 0 0 0 8.56 54.71H55.201a5.142 5.142 0 0 0 5.139-5.135V32.004c0-1.623.482-3.17 1.358-4.36 1.888-2.559 2.53-6.044 1.72-9.324Z"></path></g></svg>