<svg xmlns="http://www.w3.org/2000/svg" width="64" height="64" id="bread"><g fill="none" fill-rule="evenodd"><path fill="#CB9963" d="M62.68 37.982c0 9.642-13.752 9.7-30.716 9.7-16.965 0-30.718-.058-30.718-9.7S15 20.247 31.964 20.247c16.964 0 30.717 8.093 30.717 17.735"></path><path fill="#010202" d="M54.457 25.97c2.067 2.38 3.237 5.052 3.237 7.856 0 9.64-13.753 9.698-30.717 9.698-10.334 0-19.468-.025-25.036-2.221 2.98 6.331 15.286 6.378 30.023 6.378 16.964 0 30.717-.057 30.717-9.698 0-4.593-3.124-8.83-8.224-12.013" opacity=".3"></path><path fill="#2E2E30" d="M31.964 46.434c-18.337 0-29.47-.57-29.47-8.452 0-5.14 4.468-9.818 11.3-12.868-1.065 1.637-1.847 3.756-1.708 6.42a1.247 1.247 0 0 0 1.244 1.183c.022 0 .044 0 .066-.002a1.247 1.247 0 0 0 1.18-1.31c-.273-5.251 4.12-7.854 5.002-8.323 3.366-.901 7.059-1.454 10.921-1.566-1.705 1.845-3.446 4.945-3.437 9.956 0 .688.559 1.245 1.247 1.245h.002c.689 0 1.245-.56 1.245-1.249-.012-6.993 3.883-9.412 4.86-9.91 4.618.225 8.973 1.073 12.782 2.393-1.53 1.669-3.053 4.012-2.867 7.584a1.247 1.247 0 0 0 1.245 1.182c.021 0 .044 0 .065-.002a1.247 1.247 0 0 0 1.18-1.31c-.164-3.149 1.354-4.962 2.9-6.473 7.065 3.044 11.712 7.807 11.712 13.05 0 7.883-11.133 8.452-29.47 8.452m2.271-27.38a54.342 54.342 0 0 0-2.27-.053C14.339 18.999 0 27.514 0 37.98c0 10.947 14.812 10.947 31.964 10.947 17.15 0 31.963 0 31.963-10.946 0-10.013-13.125-18.234-29.693-18.929"></path></g></svg>