<!--?xml version="1.0" encoding="utf-8"?-->
<!-- Generator: Adobe Illustrator 18.1.1, SVG Export Plug-In . SVG Version: 6.00 Build 0)  -->

<svg version="1.1" id="_x32_" xmlns="http://www.w3.org/2000/svg" xmlns:xlink="http://www.w3.org/1999/xlink" x="0px" y="0px" viewBox="0 0 512 512" style="width: 256px; height: 256px; opacity: 1;" xml:space="preserve">
<style type="text/css">
	.st0{fill:#4B4B4B;}
</style>
<g>
	<polygon class="st0" points="14.065,390.848 14.065,390.839 13.954,390.719 	" style="fill: rgb(75, 75, 75);"></polygon>
	<path class="st0" d="M511.282,330.035v-0.028l-0.112-1.724l-0.018-0.046c-1.512-18.941-6.858-37.642-11.484-53.947
		c-0.977-3.346-2.286-7.558-4.903-11.632c2.211-4.222,3.244-8.618,3.225-12.83c-0.147-14.48-9.972-26.582-15.337-33.724
		c-13.732-17.826-30.212-34.048-48.942-48.26l-1.733-1.3l0.019,0.009c-8.111-6.157-17.605-13.457-28.867-17.899l0.165,0.055
		l-1.621-0.627l-1.052-2.479l-0.018-0.037v-0.018c-3.262-7.475-9.567-13.364-17.715-17.079
		c-44.259-20.259-92.759-24.388-125.682-24.406h-0.055c-41.421,0.405-79.155,6.746-112.17,18.931l-0.258,0.092l-2.102,0.764
		l0.019-0.008c-5.788,2.12-13.42,4.765-19.578,9.77c-4.443,3.65-6.507,8.258-8.056,11.43c-0.387,0.847-0.903,1.87-1.18,2.34
		c-6.12,1.936-11.355,5.134-14.987,7.328c-32.462,19.669-59.928,46.297-77.514,75.292c-2.617,4.342-6.01,10.683-6.027,18.646
		c0,4.793,1.216,9.502,3.41,13.807c-4.48,6.618-6.028,14.268-7.539,20.996c-0.35,1.557-0.664,3.014-0.996,4.323l-0.443,1.659
		l-0.018,0.027C5.714,305.066,0.018,326.891,0,347.769c0,15.844,3.3,31.54,14.065,43.07l0.037,0.037
		c10.415,10.95,25.678,17.052,41.9,17.061c3.963,0,7.908-0.369,11.761-1.116c16.682-3.216,28.48-12.535,39.19-20.849
		c2.249-1.751,4.535-3.502,6.839-5.226c2.858-2.11,6.562-4.175,11.06-6.608h-0.019c5.881-3.189,12.296-6.618,17.771-11.668
		c0.755-0.719,1.364-1.456,2.101-2.342l0.24-0.212l1.161,0.157h-0.018c1.954,0.267,4.166,0.571,6.544,0.571
		c2.045-0.009,3.76-0.258,5.309-0.644l0.018,0.045c14.397-2.764,30.581-6.267,42.214-12.608c0,0,0.018,0.01,0.037,0.019l0.331-0.194
		c0.019,0,0.019,0,0.037-0.008l-0.368,0.203c0.718,0.248,1.714,0.645,2.524,0.986l0.075,0.028c3.151,1.244,7.429,3.023,12.811,3.041
		h0.11h0.056c2.784-0.101,5.42-0.424,8.664-0.82l2.894-0.331c9.106-0.912,18.213-1.355,27.909-1.355
		c12.756,0,26.545,0.802,42.048,2.425l0.166,0.018l2.174,0.083h0.074h0.111c1.954,0,3.944-0.157,5.917-0.516
		c3.079-0.553,6.028-1.566,9.014-2.996c1.087,0.572,2.691,1.328,4.83,1.926l-0.24-0.064l0.222,0.064
		c3.41,0.986,6.93,2.111,11.042,3.438l-0.019-0.01c9.051,2.922,18.656,6.065,28.665,7.42l0.056,0.009l0.018,0.01
		c1.014,0.11,2.046,0.184,3.078,0.184c2.766,0,5.069-0.47,7.152-0.884c2.157,2.23,4.406,3.853,6.121,5.087l1.161,0.793l0.092,0.065
		l0.092,0.064c11.171,6.895,22.527,13.945,31.965,21.992h0.018c14.305,12.479,32.076,19.714,49.2,19.733
		c7.964,0,15.706-1.54,22.932-4.581c12.922-5.401,20.996-14.359,25.383-24.416c4.425-10.056,5.475-21.051,5.475-31.392
		C512,341.325,511.632,335.399,511.282,330.035z M113.626,380.857l0.13-0.092c0.019-0.009,0.019-0.009,0.019-0.009L113.626,380.857z
		 M113.055,350.865c-6.71,4.535-13.55,8.922-20.148,13.614c-12.369,9.447-24.462,21.66-41.089,21.78
		c2.028-0.01,4.462-0.01-0.092,0.009c-2.838,0-1.658,0-0.092-0.009c-35.706-0.046-27.227-45.597-22.692-68.602
		c1.604-8.166,3.557-16.268,5.677-24.323c0.682-2.655,1.309-10.388,3.411-12.424c7.078-6.867,19.116,9.558,25.015,14.406
		c17.346,14.268,34.821,28.389,52.426,42.361C123.93,344.413,120.06,346.137,113.055,350.865z M187.159,324.79
		c-2.748,5.659-23.577,8.231-29.366,9.89c-11.189,3.198-12.166,2.784-21.733-4.764c-19.209-15.162-38.195-30.592-57.09-46.15
		c-7.521-6.194-14.913-12.572-22.489-18.683c-5.328-4.452-16.905-10.001-16.241-17.438c0.296-3.116,5.014-8.194,6.655-10.544
		c5.936-8.508,12.794-16.489,19.965-24.001c13.991-14.627,30.102-28.564,47.78-38.555c13.382-7.566,14.12,10.674,18.526,21.356
		c9.972,24.102,20.093,48.15,30.398,72.114c4.81,11.208,9.659,22.397,14.544,33.577C180.468,306.965,188.836,319.058,187.159,324.79
		z M319.551,290.051c-2.71,6.268-11.374,37.43-18.784,37.402c0,0,2.322,0.01,0,0c-20.112-2.12-40.039-3.862-60.261-2.507
		c-7.484,0.498-19.54,4.276-26.748,2.507c-7.521,0.028-11.742-18.803-14.138-24.286c-12.037-27.744-23.872-55.578-35.486-83.506
		c-5.936-14.277-11.816-28.572-17.623-42.905c-1.806-4.415-11.06-17.927-8.682-22.839c1.567-3.199,7.816-4.83,10.525-5.936
		c13.014-5.318,26.674-9.134,40.389-12.194c25.752-5.742,52.242-8.175,78.621-7.346c29.31,0.921,58.472,5.926,86.362,14.958
		c9.125,2.95,21.512,5.651,24.185,14.471c-6.839,1.438-12.148,21.918-14.858,28.591c-7.097,17.365-14.267,34.693-21.531,51.993
		C334.279,255.691,326.962,272.89,319.551,290.051z M366.078,337.418c-6.396-1.208-12.885-3.456-19.245-5.291
		c-7.632-2.203-22.913-2.147-18.507-12.111c9.788-22.066,19.374-44.213,28.83-66.408c9.549-22.388,18.95-44.831,28.204-67.339
		c2.47-6,2.747-13.935,9.106-14.064c5.125-0.101,14.637,8.792,18.36,11.484c16.922,12.258,32.37,26.572,45.624,42.739
		c6.323,7.724,20.978,20.203,10.747,28.794c-15.337,12.876-30.914,25.512-46.436,38.195c-9.29,7.595-18.6,15.152-27.963,22.664
		C388.825,320.864,373.764,337.418,366.078,337.418z M471.98,252.889C473.031,251.985,472.22,252.695,471.98,252.889L471.98,252.889
		z M484.644,375.401c-16.019,26.231-47.136,1.511-62.564-9.918c-5.604-4.147-11.355-8.092-17.18-11.945
		c-2.526-1.669-8.646-4.102-10.36-6.719c-1.972-2.978-3.742-3.365-0.037-6.342c8.092-6.415,16.148-12.858,24.185-19.328
		c14.692-11.816,29.291-23.724,43.799-35.752c5.548-4.599,11.171-10.996,13.826-1.568
		C483.981,311.094,495.152,347.51,484.644,375.401z" style="fill: rgb(75, 75, 75);"></path>
	<path class="st0" d="M51.725,386.267c0.038,0,0.056-0.009,0.092-0.009c-0.055,0-0.129,0-0.184,0
		C51.67,386.258,51.688,386.267,51.725,386.267z" style="fill: rgb(75, 75, 75);"></path>
</g>
</svg>
