<!--?xml version="1.0" encoding="utf-8"?-->
<!-- Generator: Adobe Illustrator 18.1.1, SVG Export Plug-In . SVG Version: 6.00 Build 0)  -->

<svg version="1.1" id="_x32_" xmlns="http://www.w3.org/2000/svg" xmlns:xlink="http://www.w3.org/1999/xlink" x="0px" y="0px" viewBox="0 0 512 512" style="width: 256px; height: 256px; opacity: 1;" xml:space="preserve">
<style type="text/css">
	.st0{fill:#4B4B4B;}
</style>
<g>
	<path class="st0" d="M231.872,102.587c5.426,0,9.83-4.403,9.83-9.829c0-5.427-4.403-9.83-9.83-9.83
		c-5.434,0-9.836,4.403-9.836,9.83C222.036,98.184,226.438,102.587,231.872,102.587z" style="fill: rgb(75, 75, 75);"></path>
	<path class="st0" d="M280.135,102.587c5.426,0,9.829-4.403,9.829-9.829c0-5.427-4.403-9.83-9.829-9.83
		c-5.434,0-9.837,4.403-9.837,9.83C270.298,98.184,274.701,102.587,280.135,102.587z" style="fill: rgb(75, 75, 75);"></path>
	<path class="st0" d="M233.818,145.4c6.092,4.001,13.442,6.319,21.334,6.312c7.891,0.007,15.242-2.311,21.334-6.312
		c6.099-4,10.962-9.654,14.056-16.324c1.528-3.276,0.102-7.182-3.182-8.703c-3.276-1.529-7.174-0.103-8.703,3.174
		c-2.092,4.491-5.339,8.258-9.354,10.89c-4.03,2.633-8.813,4.162-14.152,4.169c-5.346-0.008-10.122-1.536-14.144-4.169
		c-4.022-2.632-7.27-6.399-9.361-10.89c-1.522-3.276-5.42-4.702-8.703-3.174c-3.284,1.521-4.703,5.426-3.182,8.703
		C222.862,135.746,227.718,141.4,233.818,145.4z" style="fill: rgb(75, 75, 75);"></path>
	<path class="st0" d="M256,263.47c-8.93,0-16.17,7.24-16.17,16.178c0,8.93,7.24,16.17,16.17,16.17s16.178-7.24,16.178-16.17
		C272.178,270.711,264.93,263.47,256,263.47z" style="fill: rgb(75, 75, 75);"></path>
	<path class="st0" d="M256,326.389c-8.93,0-16.17,7.24-16.17,16.17c0,8.937,7.24,16.177,16.17,16.177s16.178-7.24,16.178-16.177
		C272.178,333.63,264.93,326.389,256,326.389z" style="fill: rgb(75, 75, 75);"></path>
	<path class="st0" d="M469.973,211.954c0-6.86-1.134-13.83-3.51-20.616c-4.447-12.733-12.697-23.162-22.994-30.337
		c-10.297-7.182-22.657-11.175-35.478-11.175c-6.794,0-13.712,1.126-20.456,3.482l-0.073,0.029l-0.102,0.036l-0.11,0.036
		c-13.852,5.252-25.7,8.835-35.522,11.088c-9.793,2.245-17.618,3.145-23.25,3.145h-0.044c-2.889,0-5.222-0.234-6.882-0.563
		l-0.08-0.014l0.059,0.006c-0.095-0.022-0.176-0.036-0.263-0.058c0.124-0.138,0.234-0.285,0.366-0.439l0.08-0.08l0.058-0.066
		l0.124-0.154c5.31-6.384,12.66-15.124,18.716-26.49c6.07-11.35,10.809-25.524,10.802-42.28v-0.052v-0.014
		c0-26.695-10.275-51.078-27.389-68.755C306.954,10.992,282.907-0.008,256.051,0c-0.007,0-0.036,0-0.117,0
		c-26.848,0-50.888,10.992-67.965,28.683l-0.373,0.396l0.381-0.396c-17.114,17.677-27.389,42.06-27.389,68.755v0.066
		c-0.008,16.756,4.739,30.929,10.802,42.28c6.056,11.366,13.413,20.105,18.715,26.49l0.088,0.11l0.051,0.058l0.132,0.146
		l0.029,0.029c0.117,0.132,0.22,0.256,0.322,0.388c-1.668,0.358-4.067,0.636-7.124,0.628v0.008l-0.073-0.008
		c-5.639,0.008-13.465-0.892-23.257-3.137c-9.822-2.252-21.663-5.836-35.522-11.088l-0.088-0.029l-0.124-0.051l-0.175-0.051
		c-6.7-2.334-13.574-3.46-20.332-3.46c0,0-0.11,0.008-0.263,0.015C91.036,149.884,78.756,153.87,68.532,161
		c-10.297,7.174-18.547,17.611-22.994,30.344c-2.37,6.772-3.511,13.742-3.511,20.609c0.008,12.828,3.95,25.262,11.138,35.588
		c7.19,10.341,17.721,18.605,30.652,22.811c13.157,4.278,25.144,7.218,35.449,9.88l0.234,0.058
		c7.628,1.96,14.334,3.789,19.819,5.763c4.154,1.485,7.621,3.072,10.327,4.732c2.062,1.28,3.672,2.537,4.995,3.898
		c1.332,1.375,2.392,2.845,3.342,4.659c1.821,3.554,3.145,8.695,3.152,16.704c0,5.039-0.54,11.138-1.748,18.372v0.014
		c-0.57,3.605-2.648,8.44-6.202,13.552l-0.051,0.066l0.044-0.058c-5.295,7.723-13.815,16.111-23.25,23.505h-0.007
		c-9.427,7.416-19.813,13.962-28.765,18.577l-0.044,0.022c-11.072,5.72-19.849,14.262-25.81,24.26
		c-5.96,9.997-9.142,21.465-9.142,33.167c0,9.99,2.333,20.141,7.211,29.576c5.712,11.088,14.254,19.864,24.258,25.802
		C107.63,508.84,119.09,512,130.785,512c0.051,0,0.073,0,0.117,0c9.566-0.015,19.286-2.187,28.406-6.626h0.066l0.892-0.453
		c0.015-0.007,0.029-0.015,0.044-0.022h0.006c5.047-2.574,9.947-5.946,14.884-9.807v-0.008c8.622-6.78,17.398-15.22,26.116-24.098
		c12.974-13.23,25.809-27.484,36.553-38.154l0.198-0.198c5.353-5.324,10.239-9.756,13.896-12.477l0.014-0.007
		c1.69-1.265,3.16-2.172,4.03-2.596c0.526,0.264,1.294,0.71,2.201,1.316c1.105,0.732,2.414,1.697,3.826,2.838l0.014,0.015
		c5.024,4.052,11.563,10.43,18.657,17.794c10.693,11.072,22.797,24.398,34.879,36.399c6.048,6.004,12.096,11.687,18.086,16.646
		c0.022,0.014,0.037,0.03,0.051,0.044l0.322,0.264l-0.256-0.212c5.954,4.9,11.834,9.142,17.897,12.242h0.007
		c9.186,4.673,19.037,6.963,28.735,7.08l0.066,0.022h0.731c0.022,0,0.052,0,0.081,0c0.095-0.008,0.168-0.015,0.183-0.008
		c11.599-0.051,22.957-3.196,32.881-9.091l0.754-0.453l-0.724,0.431c9.99-5.946,18.525-14.708,24.237-25.78
		c4.871-9.427,7.211-19.585,7.204-29.576c0-11.702-3.181-23.17-9.142-33.174c-5.96-9.998-14.744-18.54-25.824-24.252v-0.008
		c-11.943-6.143-26.439-15.76-37.84-26.255l-0.008-0.007c-5.712-5.222-10.663-10.692-14.203-15.834l-0.008-0.008
		c-3.554-5.112-5.631-9.947-6.202-13.552v-0.014c-1.206-7.234-1.748-13.333-1.748-18.38c0-4.724,0.476-8.505,1.236-11.496
		c0.666-2.626,1.528-4.637,2.56-6.363c1.843-3.006,4.132-5.222,7.936-7.541l-0.008,0.008c2.802-1.696,6.393-3.298,10.707-4.812
		c6.465-2.281,14.554-4.359,23.813-6.728h0.008c9.274-2.377,19.739-5.068,31.068-8.754c12.931-4.206,23.469-12.47,30.652-22.811
		l0.19-0.278l-0.183,0.263C466.024,237.2,469.965,224.774,469.973,211.954z M108.054,235.438c1.207,2.728,2.662,4.761,3.584,6.443
		c0.468,0.827,0.812,1.55,1.017,2.15c0.204,0.6,0.285,1.068,0.285,1.521c0,0.439-0.066,0.9-0.322,1.58
		c-0.248,0.636-0.497,1.016-0.768,1.338c-0.461,0.534-1.119,0.987-2.311,1.484c-0.886,0.366-2.026,0.717-3.35,1.112
		c-1.968,0.614-4.374,1.294-6.875,2.823c-0.212,0.132-0.424,0.322-0.643,0.468c-2.874-0.848-5.792-1.733-8.769-2.706
		c-8.711-2.838-15.695-8.308-20.595-15.337c-4.892-7.021-7.621-15.577-7.613-24.361c0-4.695,0.768-9.456,2.399-14.122
		c3.064-8.74,8.652-15.79,15.687-20.705c7.044-4.914,15.512-7.642,24.238-7.642c4.615,0,9.303,0.761,13.924,2.377
		c4.572,1.726,8.93,3.277,13.121,4.681c-0.856,0.366-1.733,0.79-2.633,1.338c-1.243,0.768-2.486,1.763-3.569,3.035
		c-1.09,1.272-1.996,2.801-2.647,4.512c-0.71,1.829-1.054,3.708-1.046,5.493c-0.007,2.486,0.651,4.696,1.441,6.509
		c1.207,2.728,2.662,4.761,3.584,6.443c0.468,0.827,0.812,1.55,1.016,2.15c0.205,0.607,0.285,1.068,0.285,1.521
		c0,0.439-0.066,0.907-0.321,1.588c-0.248,0.636-0.497,1.016-0.768,1.331c-0.46,0.541-1.119,0.994-2.311,1.492
		c-0.892,0.366-2.034,0.717-3.349,1.112c-1.975,0.615-4.381,1.302-6.875,2.823c-1.236,0.768-2.48,1.77-3.569,3.043
		c-1.082,1.272-1.989,2.801-2.648,4.505c-0.702,1.829-1.045,3.708-1.045,5.485C106.606,231.415,107.257,233.624,108.054,235.438z
		 M166.043,477.202c-5.397,4.498-10.451,8.045-14.649,10.166h0.008c-6.641,3.379-13.677,4.966-20.617,4.974
		c-8.147,0-16.156-2.209-23.104-6.341c-6.955-4.139-12.835-10.166-16.843-17.911c-3.408-6.619-5.01-13.632-5.017-20.566
		c0-8.132,2.223-16.141,6.37-23.096c4.154-6.963,10.202-12.857,17.954-16.865c3.101-1.602,6.319-3.394,9.581-5.332v0.066
		c0,1.771,0.19,3.782,0.929,5.866c0.724,2.078,2.033,4.154,3.854,5.888c1.653,1.587,3.554,2.742,5.478,3.401
		c1.924,0.672,3.804,0.884,5.486,0.878c2.098,0,3.928-0.293,5.499-0.527c1.58-0.234,2.904-0.409,3.906-0.402
		c0.812,0,1.39,0.095,1.865,0.264c0.483,0.175,0.93,0.41,1.544,0.994c0.666,0.651,0.907,1.097,1.111,1.631
		c0.19,0.534,0.3,1.236,0.3,2.216c0,0.929-0.102,2.077-0.248,3.415c-0.132,1.331-0.3,2.838-0.307,4.534
		c0,1.77,0.197,3.781,0.936,5.866c0.724,2.07,2.026,4.146,3.846,5.873l0.008,0.008c1.645,1.579,3.547,2.728,5.463,3.393
		c1.916,0.672,3.796,0.878,5.471,0.878c2.106-0.007,3.935-0.3,5.522-0.526c1.572-0.242,2.904-0.417,3.906-0.41
		c0.804,0,1.382,0.095,1.858,0.263c0.475,0.176,0.914,0.402,1.528,0.98c0.666,0.651,0.907,1.097,1.111,1.638
		c0.19,0.526,0.3,1.229,0.3,2.209c0,0.921-0.11,2.077-0.248,3.408c-0.14,1.338-0.3,2.852-0.307,4.55c0,1.77,0.19,3.774,0.928,5.85
		l0.168,0.402C174.958,469.377,170.38,473.596,166.043,477.202z M378.429,404.578c0.622-0.585,1.06-0.819,1.543-0.994
		c0.476-0.168,1.053-0.264,1.865-0.264c1.002,0,2.326,0.176,3.906,0.41c1.572,0.234,3.401,0.52,5.5,0.526
		c1.185,0,2.472-0.109,3.803-0.409c2.311,1.316,4.593,2.574,6.809,3.715c7.752,4.008,13.801,9.902,17.955,16.865
		c4.147,6.955,6.37,14.964,6.37,23.096c0,6.933-1.601,13.947-5.017,20.566c-4.008,7.745-9.888,13.772-16.843,17.911
		c-6.941,4.132-14.949,6.341-23.096,6.341c-6.948-0.008-13.976-1.594-20.617-4.974c-3.408-1.719-7.394-4.388-11.658-7.738
		c-6.633-5.215-13.939-12.06-21.384-19.542c1.433,0.212,3.035,0.439,4.871,0.439c1.674,0,3.562-0.204,5.477-0.878
		c1.917-0.658,3.826-1.814,5.471-3.394c1.821-1.733,3.123-3.803,3.847-5.88c0.738-2.076,0.929-4.081,0.929-5.85
		c0-1.697-0.168-3.218-0.307-4.549c-0.139-1.332-0.248-2.487-0.248-3.416c0-0.98,0.117-1.675,0.307-2.209
		c0.197-0.534,0.439-0.98,1.104-1.631c0.615-0.577,1.054-0.812,1.536-0.987c0.476-0.168,1.053-0.264,1.865-0.264
		c1.002,0,2.326,0.168,3.898,0.41c1.58,0.227,3.408,0.52,5.515,0.526c1.674,0,3.554-0.204,5.477-0.878
		c1.916-0.665,3.826-1.813,5.471-3.401c1.828-1.733,3.13-3.803,3.862-5.887c0.732-2.084,0.928-4.096,0.928-5.866
		c-0.007-1.69-0.168-3.196-0.307-4.527c-0.139-1.331-0.249-2.486-0.241-3.408c0-0.987,0.109-1.682,0.3-2.223
		c0.198-0.534,0.439-0.98,1.09-1.624L378.429,404.578z M401.211,250.079c-0.578,1.368-1.792,3.167-3.094,5.449
		c-0.563,1.009-1.126,2.158-1.609,3.43c-2.962,0.768-5.866,1.507-8.681,2.23c-7.848,2.026-15.118,3.964-21.795,6.356
		c-4.995,1.799-9.668,3.854-13.947,6.472c-6.4,3.892-11.936,9.237-15.549,16.324c-3.634,7.08-5.339,15.563-5.339,25.7
		c0.007,6.428,0.68,13.56,2.019,21.612c1.287,7.598,4.768,14.744,9.42,21.509c7.006,10.122,16.769,19.512,27.294,27.799
		c2.589,2.033,5.229,4.001,7.892,5.887c-0.482,0.117-0.973,0.264-1.47,0.431c-1.916,0.666-3.824,1.822-5.47,3.408
		c-1.829,1.733-3.138,3.803-3.862,5.887c-0.738,2.078-0.929,4.088-0.929,5.866c0,1.69,0.169,3.196,0.3,4.527
		c0.147,1.332,0.25,2.48,0.25,3.408c0,0.98-0.11,1.682-0.3,2.216c-0.204,0.542-0.446,0.995-1.112,1.639v0.007l-0.79,0.753l0.79-0.76
		c-0.615,0.585-1.054,0.818-1.536,0.994c-0.483,0.168-1.06,0.263-1.864,0.263c-1.002,0-2.334-0.175-3.906-0.41
		c-1.58-0.234-3.408-0.526-5.508-0.526c-1.682,0-3.561,0.205-5.485,0.878c-1.916,0.666-3.824,1.814-5.47,3.401
		c-1.821,1.734-3.122,3.803-3.846,5.873c-0.739,2.077-0.929,4.088-0.929,5.858c0,1.697,0.168,3.21,0.307,4.542
		c0.138,1.338,0.248,2.494,0.248,3.422c0,0.98-0.11,1.668-0.3,2.209c-0.204,0.526-0.446,0.98-1.111,1.624
		c-0.614,0.585-1.053,0.812-1.528,0.988c-0.483,0.168-1.053,0.263-1.865,0.263c-1.002,0.008-2.326-0.168-3.906-0.41
		c-1.58-0.227-3.408-0.519-5.514-0.526c-1.675,0-3.555,0.205-5.478,0.878l-0.154,0.066c-10.239-10.722-20.405-21.809-29.591-30.937
		c-5.712-5.66-11.028-10.568-16.016-14.29c-2.501-1.865-4.922-3.438-7.438-4.652c-2.516-1.192-5.164-2.121-8.338-2.15
		c-2.414,0.015-4.535,0.578-6.516,1.353c-3.686,1.47-7.065,3.737-10.692,6.546c-6.29,4.922-13.187,11.657-20.602,19.301
		c-9.025,9.302-18.774,19.929-28.436,29.883c0.124-1.214,0.256-2.552,0.256-4.044c0-1.77-0.19-3.781-0.929-5.866
		c-0.717-2.069-2.026-4.139-3.854-5.872l-0.029-0.029c-1.638-1.565-3.525-2.713-5.427-3.372c-1.923-0.673-3.803-0.878-5.478-0.878
		c-2.106,0.007-3.935,0.3-5.515,0.526c-1.58,0.241-2.91,0.417-3.912,0.41c-0.805,0-1.382-0.088-1.858-0.264
		c-0.476-0.175-0.914-0.402-1.528-0.98c-0.665-0.651-0.907-1.097-1.112-1.639c-0.19-0.526-0.3-1.228-0.3-2.208
		c0-0.929,0.102-2.078,0.248-3.416c0.132-1.331,0.3-2.844,0.308-4.534c-0.008-1.77-0.198-3.781-0.93-5.859
		c-0.731-2.077-2.032-4.153-3.861-5.887h0.007c-1.653-1.587-3.554-2.735-5.478-3.401c-1.923-0.672-3.803-0.885-5.485-0.885
		c-2.099,0.008-3.927,0.3-5.506,0.527c-1.573,0.241-2.896,0.416-3.898,0.409c-0.812,0-1.39-0.095-1.872-0.263
		c-0.483-0.175-0.922-0.41-1.544-0.987h0.008c-0.674-0.658-0.914-1.105-1.112-1.639c-0.197-0.541-0.307-1.236-0.307-2.224
		c0-0.928,0.11-2.076,0.248-3.408c0.118-1.17,0.242-2.501,0.278-3.942c7.277-4.981,14.503-10.583,21.093-16.624
		c6.523-5.997,12.425-12.404,17.099-19.162c4.651-6.766,8.132-13.911,9.42-21.509c1.346-8.052,2.011-15.19,2.018-21.612
		c-0.007-6.019-0.6-11.423-1.843-16.323c-1.082-4.294-2.684-8.192-4.776-11.666c-3.649-6.107-8.783-10.751-14.627-14.247
		c-4.389-2.64-9.186-4.702-14.328-6.516c-7.708-2.706-16.214-4.857-25.466-7.226c-1.302-0.336-2.655-0.688-3.986-1.031
		c0.278-0.154,0.548-0.278,0.826-0.446c1.236-0.768,2.487-1.77,3.569-3.043c1.082-1.265,1.996-2.794,2.647-4.505
		c0.703-1.829,1.046-3.708,1.046-5.486c0-2.494-0.652-4.702-1.448-6.516c-1.2-2.727-2.662-4.761-3.584-6.443
		c-0.468-0.834-0.812-1.551-1.017-2.15c-0.205-0.6-0.285-1.068-0.285-1.522c0-0.439,0.065-0.899,0.322-1.572v-0.008
		c0.248-0.637,0.497-1.016,0.768-1.331c0.468-0.542,1.119-0.995,2.318-1.493c0.885-0.365,2.026-0.716,3.342-1.111
		c1.975-0.614,4.381-1.302,6.875-2.823c1.236-0.768,2.479-1.77,3.57-3.043c1.082-1.272,1.996-2.801,2.647-4.505
		c0.702-1.828,1.046-3.716,1.046-5.492c0-2.494-0.651-4.702-1.441-6.516c-1.206-2.721-2.669-4.761-3.591-6.436
		c-0.468-0.834-0.804-1.558-1.009-2.151c-0.212-0.606-0.293-1.067-0.293-1.521c0.008-0.439,0.073-0.907,0.33-1.58l-0.22,0.563
		l0.22-0.571c0.248-0.636,0.497-1.016,0.768-1.338c0.46-0.534,1.119-0.987,2.318-1.492c0.878-0.366,2.026-0.717,3.342-1.112
		c1.974-0.614,4.38-1.294,6.874-2.823c0.505-0.314,1.002-0.695,1.499-1.082c2.999,0.812,5.895,1.535,8.666,2.179
		c10.905,2.486,20.047,3.627,27.682,3.634c3.928,0,7.46-0.3,10.67-0.928c4.783-0.958,8.945-2.597,12.302-5.522
		c1.66-1.455,3.072-3.269,4.03-5.324c0.951-2.056,1.419-4.315,1.412-6.502c0-2.962-0.79-5.748-2.004-8.301
		c-1.192-2.486-2.808-4.805-4.761-7.028c-5.302-6.355-11.563-13.925-16.478-23.155c-4.9-9.237-8.477-20.003-8.491-33.101
		c0.008-21.618,8.286-41.044,21.86-55.086C215.703,28.325,234.498,19.68,256,19.666c21.502,0.015,40.298,8.66,53.894,22.687
		c13.574,14.042,21.853,33.467,21.86,55.086c-0.014,13.098-3.59,23.864-8.49,33.101c-4.915,9.23-11.175,16.8-16.478,23.155
		c-1.953,2.224-3.569,4.542-4.762,7.028c-1.214,2.552-2.004,5.339-2.004,8.301c-0.014,2.911,0.848,5.968,2.516,8.469
		c1.236,1.887,2.852,3.467,4.666,4.717c2.728,1.88,5.866,3.101,9.376,3.913c3.518,0.797,7.437,1.177,11.855,1.185
		c7.635-0.008,16.777-1.156,27.682-3.642c3.906-0.9,8.045-1.975,12.411-3.233c-0.482,0.922-0.958,1.902-1.346,3.028
		c-0.512,1.492-0.878,3.21-0.878,5.076c-0.007,1.777,0.337,3.656,1.046,5.485c0.658,1.74,1.587,3.291,2.698,4.57
		c1.953,2.268,4.33,3.591,6.422,4.455c1.58,0.643,3.057,1.074,4.337,1.469c1.937,0.571,3.422,1.105,4.292,1.66
		c0.439,0.278,0.746,0.534,1.016,0.848c0.264,0.314,0.512,0.695,0.754,1.324c0.256,0.68,0.322,1.133,0.322,1.572
		c0,0.6-0.14,1.243-0.534,2.165c-0.578,1.36-1.792,3.16-3.094,5.442c-0.643,1.148-1.302,2.442-1.82,3.941
		c-0.52,1.492-0.885,3.218-0.885,5.083c0,1.777,0.344,3.649,1.046,5.478c0.666,1.74,1.594,3.291,2.699,4.571
		c1.952,2.268,4.337,3.591,6.429,4.447c1.579,0.651,3.05,1.082,4.337,1.47c1.931,0.577,3.415,1.104,4.286,1.659
		c0.446,0.279,0.746,0.534,1.016,0.849c0.264,0.314,0.512,0.695,0.753,1.324c0.256,0.68,0.322,1.14,0.322,1.572
		C401.745,248.522,401.606,249.166,401.211,250.079z M442.693,236.315c-4.893,7.029-11.885,12.5-20.595,15.337
		c-3.803,1.243-7.503,2.34-11.146,3.386c0.3-0.636,0.586-1.309,0.834-2.032c0.519-1.499,0.884-3.218,0.884-5.084
		c0-1.777-0.344-3.656-1.046-5.485c-0.658-1.725-1.587-3.284-2.699-4.564c-1.952-2.267-4.337-3.59-6.421-4.446
		c-1.587-0.651-3.057-1.082-4.337-1.47c-1.938-0.578-3.422-1.105-4.292-1.66c-0.439-0.278-0.746-0.534-1.017-0.848
		c-0.263-0.314-0.512-0.687-0.753-1.324c-0.256-0.673-0.322-1.134-0.322-1.572c0-0.599,0.139-1.243,0.534-2.164
		c0.578-1.368,1.792-3.16,3.093-5.442c0.644-1.148,1.302-2.443,1.821-3.942c0.519-1.499,0.885-3.217,0.885-5.083
		c0-1.77-0.344-3.649-1.046-5.485c-0.665-1.726-1.587-3.284-2.698-4.564c-1.953-2.267-4.337-3.591-6.421-4.454
		c-1.588-0.651-3.057-1.076-4.344-1.47c-1.931-0.57-3.416-1.097-4.286-1.653c-0.439-0.278-0.746-0.541-1.016-0.848
		c-0.264-0.321-0.512-0.702-0.761-1.331c-0.249-0.672-0.314-1.141-0.322-1.58c0.008-0.6,0.147-1.244,0.542-2.165
		c0.57-1.368,1.784-3.16,3.086-5.442c0.643-1.148,1.302-2.442,1.822-3.942c0.132-0.373,0.248-0.754,0.351-1.149
		c3.554-1.214,7.218-2.537,11.028-3.978c4.63-1.616,9.317-2.377,13.939-2.377c8.718,0,17.188,2.728,24.23,7.642
		c7.035,4.915,12.63,11.966,15.687,20.705c1.631,4.658,2.399,9.427,2.399,14.122C450.314,220.738,447.586,229.294,442.693,236.315z" style="fill: rgb(75, 75, 75);"></path>
	<path class="st0" d="M184.664,438.345l0.534,0.512c0.007,0.014,0.022,0.014,0.036,0.029L184.664,438.345z" style="fill: rgb(75, 75, 75);"></path>
	<polygon class="st0" points="213.932,195.404 213.932,237.47 256,225.952 298.075,237.47 298.075,195.404 256,206.915 	" style="fill: rgb(75, 75, 75);"></polygon>
</g>
</svg>
